# xmcd
#
# Track frame offsets:
#	150
#	14160
#	29430
#	46202
#	63727
#	78285
#	93650
#	114000
#	137690
#	153157
#	169570
#	183240
#	200612
#	213810
#
# Disc length: 3085 seconds
#
# Revision: 4
# Processed by: cddbd v1.5.2PL0 Copyright (c) Steve Scherf et al.
# Submitted via: EasyCDDAExtractor 11.1.0.1
#
DISCID=b40c0b0e
DTITLE=Gina Jeffreys - Up Close
DYEAR=1996
DGENRE=Country
TTITLE0=Girl Talk
TTITLE1=Under The Influence Of Love
TTITLE2=The Bridge
TTITLE3=Josephine
TTITLE4=I Don't Do Lonely
TTITLE5=Up Close Personal Attention
TTITLE6=I Haven't Got A Heart
TTITLE7=The Weatherman
TTITLE8=Hard Working Man
TTITLE9=Don't
TTITLE10=Coming Back
TTITLE11=Since You Went Away
TTITLE12=I Believe
TTITLE13=Didn't We Shine
EXTD=YEAR: 1996 ID3G: 2
EXTT0=
EXTT1=
EXTT2=
EXTT3=
EXTT4=
EXTT5=
EXTT6=
EXTT7=
EXTT8=
EXTT9=
EXTT10=
EXTT11=
EXTT12=
EXTT13=
PLAYORDER=
